<?xml version="1.0" encoding="UTF-8" standalone="no"?>
<!DOCTYPE svg PUBLIC "-//W3C//DTD SVG 1.1//EN" "http://www.w3.org/Graphics/SVG/1.1/DTD/svg11.dtd">
<!-- Generated by Microsoft Visio, SVG Export Drawing.svg Page-1 -->
<svg xmlns="http://www.w3.org/2000/svg" xmlns:xlink="http://www.w3.org/1999/xlink" xmlns:ev="http://www.w3.org/2001/xml-events"
		xmlns:v="http://schemas.microsoft.com/visio/2003/SVGExtensions/" width="8.26772in" height="11.6929in"
		viewBox="0 0 595.276 841.89" xml:space="preserve" color-interpolation-filters="sRGB" class="st16">
	<v:documentProperties v:langID="1033" v:metric="true" v:viewMarkup="false">
		<v:userDefs>
			<v:ud v:nameU="msvNoAutoConnect" v:prompt="" v:val="VT0(0):26"/>
		</v:userDefs>
	</v:documentProperties>

	<style type="text/css">
	<![CDATA[
		.st1 {fill:#5b9bd5;stroke:#5b9bd5;stroke-linecap:round;stroke-linejoin:round;stroke-width:0.5}
		.st2 {fill:#73ae42;stroke:#ffffff;stroke-linecap:round;stroke-linejoin:round;stroke-width:0.5}
		.st3 {fill:#ffffff;font-family:Calibri;font-size:1.00001em}
		.st4 {marker-end:url(#mrkr4-11);stroke:#5592c9;stroke-linecap:round;stroke-linejoin:round;stroke-width:0.5}
		.st5 {fill:#5592c9;fill-opacity:1;stroke:#5592c9;stroke-opacity:1;stroke-width:0.16556291390728}
		.st6 {fill:none;stroke:none;stroke-linecap:round;stroke-linejoin:round;stroke-width:0.5}
		.st7 {fill:#5b9bd5;font-family:Calibri;font-size:1.00001em}
		.st8 {fill:#5b9bd5;stroke:#ffffff;stroke-linecap:round;stroke-linejoin:round;stroke-width:0.5}
		.st9 {fill:#ffffff;stroke:none;stroke-linecap:butt;stroke-width:7.2}
		.st10 {fill:#41719d;font-family:Calibri;font-size:0.666664em}
		.st11 {fill:#a5a5a5}
		.st12 {stroke:#a5a5a5;stroke-linecap:round;stroke-linejoin:round;stroke-width:0.5}
		.st13 {fill:#a5a5a5;font-family:Calibri;font-size:1.00001em}
		.st14 {font-size:1em}
		.st15 {fill:#ffffff;stroke:none;stroke-linecap:butt}
		.st16 {fill:none;fill-rule:evenodd;font-size:12px;overflow:visible;stroke-linecap:square;stroke-miterlimit:3}
	]]>
	</style>

	<defs id="Markers">
		<g id="lend4">
			<path d="M 2 1 L 0 0 L 2 -1 L 2 1 " style="stroke:none"/>
		</g>
		<marker id="mrkr4-11" class="st5" v:arrowType="4" v:arrowSize="2" v:setback="12.08" refX="-12.08" orient="auto"
				markerUnits="strokeWidth" overflow="visible">
			<use xlink:href="#lend4" transform="scale(-6.04,-6.04) "/>
		</marker>
	</defs>
	<g v:mID="0" v:index="1" v:groupContext="foregroundPage">
		<v:userDefs>
			<v:ud v:nameU="msvThemeOrder" v:val="VT0(0):26"/>
		</v:userDefs>
		<title>Page-1</title>
		<v:pageProperties v:drawingScale="0.0393701" v:pageScale="0.0393701" v:drawingUnits="24" v:shadowOffsetX="8.50394"
				v:shadowOffsetY="-8.50394"/>
		<v:layer v:name="Connector" v:index="0"/>
		<g id="shape1-1" v:mID="1" v:groupContext="shape" transform="translate(260.382,-745.512)">
			<title>Initial node</title>
			<v:userDefs>
				<v:ud v:nameU="visVersion" v:prompt="" v:val="VT0(15):26"/>
			</v:userDefs>
			<ellipse cx="17.0079" cy="824.882" rx="17.0079" ry="17.0079" class="st1"/>
		</g>
		<g id="shape2-3" v:mID="2" v:groupContext="shape" transform="translate(220.697,-691.654)">
			<title>Action</title>
			<desc>Voter Registration</desc>
			<v:userDefs>
				<v:ud v:nameU="visVersion" v:prompt="" v:val="VT0(15):26"/>
			</v:userDefs>
			<v:textBlock v:margins="rect(4,4,4,4)" v:tabSpace="42.5197"/>
			<v:textRect cx="56.6929" cy="824.882" width="113.39" height="34.0157"/>
			<rect x="0" y="807.874" width="113.386" height="34.0157" rx="8.50394" ry="8.50394" class="st2"/>
			<text x="12.21" y="828.48" class="st3" v:langID="1033"><v:paragraph v:horizAlign="1"/><v:tabList/>Voter Registration</text>		</g>
		<g id="shape3-6" v:mID="3" v:groupContext="shape" v:layerMember="0" transform="translate(270.304,-745.512)">
			<title>Dynamic connector</title>
			<path d="M7.09 841.89 L7.09 855.69" class="st4"/>
		</g>
		<g id="shape7-12" v:mID="7" v:groupContext="shape" transform="translate(219.685,-773.858)">
			<title>Initial node.7</title>
			<desc>Voting Process Begin</desc>
			<v:textBlock v:margins="rect(4,4,4,4)" v:tabSpace="42.5197"/>
			<v:textRect cx="56.6929" cy="824.882" width="113.39" height="34.0157"/>
			<rect x="0" y="807.874" width="113.386" height="34.0157" class="st6"/>
			<text x="5.87" y="828.48" class="st7" v:langID="1033"><v:paragraph v:horizAlign="1"/><v:tabList/>Voting Process Begin</text>		</g>
		<g id="shape8-15" v:mID="8" v:groupContext="shape" transform="translate(220.697,-623.622)">
			<title>Action.8</title>
			<desc>Voter Authorization</desc>
			<v:userDefs>
				<v:ud v:nameU="visVersion" v:prompt="" v:val="VT0(15):26"/>
			</v:userDefs>
			<v:textBlock v:margins="rect(4,4,4,4)" v:tabSpace="42.5197"/>
			<v:textRect cx="56.6929" cy="824.882" width="113.39" height="34.0157"/>
			<rect x="0" y="807.874" width="113.386" height="34.0157" rx="8.50394" ry="8.50394" class="st2"/>
			<text x="8.31" y="828.48" class="st3" v:langID="1033"><v:paragraph v:horizAlign="1"/><v:tabList/>Voter Authorization</text>		</g>
		<g id="shape9-18" v:mID="9" v:groupContext="shape" v:layerMember="0" transform="translate(270.304,-691.654)">
			<title>Dynamic connector.9</title>
			<path d="M7.09 841.89 L7.09 869.87" class="st4"/>
		</g>
		<g id="shape10-23" v:mID="10" v:groupContext="shape" transform="translate(260.382,-549.921)">
			<title>Decision</title>
			<v:userDefs>
				<v:ud v:nameU="visVersion" v:prompt="" v:val="VT0(15):26"/>
			</v:userDefs>
			<path d="M17.01 841.89 L34.02 824.88 L17.01 807.87 L0 824.88 L17.01 841.89 Z" class="st8"/>
		</g>
		<g id="shape11-25" v:mID="11" v:groupContext="shape" v:layerMember="0" transform="translate(270.304,-623.622)">
			<title>Dynamic connector.11</title>
			<path d="M7.09 841.89 L7.09 875.53" class="st4"/>
		</g>
		<g id="shape15-30" v:mID="15" v:groupContext="shape" v:layerMember="0" transform="translate(260.382,-566.929)">
			<title>Dynamic connector.15</title>
			<desc>Admin Reject Voter</desc>
			<v:textBlock v:margins="rect(4,4,4,4)" v:tabSpace="42.5197"/>
			<v:textRect cx="-86.1215" cy="836.22" width="73.18" height="17.6036"/>
			<path d="M0 841.89 L-125.45 841.89 L-125.45 881.2" class="st4"/>
			<rect v:rectContext="textBkgnd" x="-117.804" y="831.421" width="63.3661" height="9.59985" class="st9"/>
			<text x="-117.8" y="838.62" class="st10" v:langID="1033"><v:paragraph v:horizAlign="1"/><v:tabList/>Admin Reject Voter</text>		</g>
		<g id="shape14-37" v:mID="14" v:groupContext="shape" transform="translate(78.2363,-487.559)">
			<title>Action.14</title>
			<desc>Reject Voter</desc>
			<v:userDefs>
				<v:ud v:nameU="visVersion" v:prompt="" v:val="VT0(15):26"/>
			</v:userDefs>
			<v:textBlock v:margins="rect(4,4,4,4)" v:tabSpace="42.5197"/>
			<v:textRect cx="56.6929" cy="824.882" width="113.39" height="34.0157"/>
			<rect x="0" y="807.874" width="113.386" height="34.0157" rx="8.50394" ry="8.50394" class="st2"/>
			<text x="26.47" y="828.48" class="st3" v:langID="1033"><v:paragraph v:horizAlign="1"/><v:tabList/>Reject Voter</text>		</g>
		<g id="shape17-40" v:mID="17" v:groupContext="shape" v:layerMember="0" transform="translate(294.398,-566.929)">
			<title>Dynamic connector.17</title>
			<desc>Admin Accept Voter</desc>
			<v:textBlock v:margins="rect(4,4,4,4)" v:tabSpace="42.5197"/>
			<v:textRect cx="80.9899" cy="841.89" width="75.16" height="17.6036"/>
			<path d="M0 841.89 L116.63 841.89 L116.63 881.2" class="st4"/>
			<rect v:rectContext="textBkgnd" x="48.3187" y="837.09" width="65.3426" height="9.59985" class="st9"/>
			<text x="48.32" y="844.29" class="st10" v:langID="1033"><v:paragraph v:horizAlign="1"/><v:tabList/>Admin Accept Voter</text>		</g>
		<g id="shape16-47" v:mID="16" v:groupContext="shape" transform="translate(354.331,-487.559)">
			<title>Action.16</title>
			<desc>Accept Voter</desc>
			<v:userDefs>
				<v:ud v:nameU="visVersion" v:prompt="" v:val="VT0(15):26"/>
			</v:userDefs>
			<v:textBlock v:margins="rect(4,4,4,4)" v:tabSpace="42.5197"/>
			<v:textRect cx="56.6929" cy="824.882" width="113.39" height="34.0157"/>
			<rect x="0" y="807.874" width="113.386" height="34.0157" rx="8.50394" ry="8.50394" class="st2"/>
			<text x="24.99" y="828.48" class="st3" v:langID="1033"><v:paragraph v:horizAlign="1"/><v:tabList/>Accept Voter</text>		</g>
		<g id="shape19-50" v:mID="19" v:groupContext="shape" v:layerMember="0" transform="translate(403.937,-487.559)">
			<title>Dynamic connector.19</title>
			<path d="M7.09 841.89 L7.09 881.2" class="st4"/>
		</g>
		<g id="shape18-55" v:mID="18" v:groupContext="shape" transform="translate(354.331,-408.189)">
			<title>Action.18</title>
			<desc>Vote Candidate</desc>
			<v:userDefs>
				<v:ud v:nameU="visVersion" v:prompt="" v:val="VT0(15):26"/>
			</v:userDefs>
			<v:textBlock v:margins="rect(4,4,4,4)" v:tabSpace="42.5197"/>
			<v:textRect cx="56.6929" cy="824.882" width="113.39" height="34.0157"/>
			<rect x="0" y="807.874" width="113.386" height="34.0157" rx="8.50394" ry="8.50394" class="st2"/>
			<text x="19" y="828.48" class="st3" v:langID="1033"><v:paragraph v:horizAlign="1"/><v:tabList/>Vote Candidate</text>		</g>
		<g id="shape25-58" v:mID="25" v:groupContext="shape" transform="translate(117.921,-408.189)">
			<title>Final node</title>
			<desc>END</desc>
			<v:userDefs>
				<v:ud v:nameU="visVersion" v:prompt="" v:val="VT0(15):26"/>
			</v:userDefs>
			<v:textBlock v:margins="rect(4,4,4,4)" v:tabSpace="42.5197"/>
			<v:textRect cx="17.0079" cy="853.092" width="31.71" height="22.4037"/>
			<path d="M30.61 824.88 A13.6063 13.6063 -180 1 0 3.4 824.88 A13.6063 13.6063 -180 1 0 30.61 824.88 Z" class="st11"/>
			<path d="M34.02 824.88 A17.0079 17.0079 -180 1 0 0 824.88 A17.0079 17.0079 -180 1 0 34.02 824.88" class="st12"/>
			<path d="M30.61 824.88 A13.6063 13.6063 -180 1 0 3.4 824.88 A13.6063 13.6063 -180 1 0 30.61 824.88" class="st12"/>
			<text x="6.51" y="856.69" class="st13" v:langID="1033"><v:paragraph v:horizAlign="1"/><v:tabList/>END</text>		</g>
		<g id="shape26-63" v:mID="26" v:groupContext="shape" v:layerMember="0" transform="translate(110.835,-418.11)">
			<title>Dynamic connector.26</title>
			<path d="M7.09 834.8 L-0.16 834.8 L1.05 834.8" class="st4"/>
		</g>
		<g id="shape27-68" v:mID="27" v:groupContext="shape" v:layerMember="0" transform="translate(127.843,-487.559)">
			<title>Dynamic connector.27</title>
			<path d="M7.09 841.89 L7.09 881.2" class="st4"/>
		</g>
		<g id="shape29-73" v:mID="29" v:groupContext="shape" transform="translate(394.016,-272.126)">
			<title>Decision.29</title>
			<v:userDefs>
				<v:ud v:nameU="visVersion" v:prompt="" v:val="VT0(15):26"/>
			</v:userDefs>
			<path d="M17.01 841.89 L34.02 824.88 L17.01 807.87 L0 824.88 L17.01 841.89 Z" class="st8"/>
		</g>
		<g id="shape31-75" v:mID="31" v:groupContext="shape" v:layerMember="0" transform="translate(403.937,-408.189)">
			<title>Dynamic connector.31</title>
			<path d="M7.09 841.89 L7.09 869.87" class="st4"/>
		</g>
		<g id="shape30-80" v:mID="30" v:groupContext="shape" transform="translate(354.331,-340.157)">
			<title>Action.30</title>
			<desc>Admin Close Election</desc>
			<v:userDefs>
				<v:ud v:nameU="visVersion" v:prompt="" v:val="VT0(15):26"/>
			</v:userDefs>
			<v:textBlock v:margins="rect(4,4,4,4)" v:tabSpace="42.5197"/>
			<v:textRect cx="56.6929" cy="824.882" width="113.39" height="34.0157"/>
			<rect x="0" y="807.874" width="113.386" height="34.0157" rx="8.50394" ry="8.50394" class="st2"/>
			<text x="5.43" y="828.48" class="st3" v:langID="1033"><v:paragraph v:horizAlign="1"/><v:tabList/>Admin Close Election</text>		</g>
		<g id="shape32-83" v:mID="32" v:groupContext="shape" v:layerMember="0" transform="translate(403.937,-340.157)">
			<title>Dynamic connector.32</title>
			<path d="M7.09 841.89 L7.09 869.87" class="st4"/>
		</g>
		<g id="shape33-88" v:mID="33" v:groupContext="shape" transform="translate(354.331,-202.7)">
			<title>Action.33</title>
			<desc>FInd Winner Candidate</desc>
			<v:userDefs>
				<v:ud v:nameU="visVersion" v:prompt="" v:val="VT0(15):26"/>
			</v:userDefs>
			<v:textBlock v:margins="rect(4,4,4,4)" v:tabSpace="42.5197"/>
			<v:textRect cx="56.6929" cy="823.488" width="113.39" height="36.8038"/>
			<rect x="0" y="805.086" width="113.386" height="36.8038" rx="8.50394" ry="8.50394" class="st2"/>
			<text x="26.67" y="819.89" class="st3" v:langID="1033"><v:paragraph v:horizAlign="1"/><v:tabList/>FInd Winner <tspan
						x="31.92" dy="1.2em" class="st14">Candidate</tspan></text>		</g>
		<g id="shape34-92" v:mID="34" v:groupContext="shape" v:layerMember="0" transform="translate(403.937,-272.126)">
			<title>Dynamic connector.34</title>
			<desc>Election Close</desc>
			<v:textBlock v:margins="rect(4,4,4,4)" v:tabSpace="42.5197"/>
			<v:textRect cx="7.08661" cy="858.201" width="55.1" height="17.6036"/>
			<path d="M7.09 841.89 L7.09 868.47" class="st4"/>
			<rect v:rectContext="textBkgnd" x="-15.5535" y="853.401" width="45.2804" height="9.59985" class="st9"/>
			<text x="-15.55" y="860.6" class="st10" v:langID="1033"><v:paragraph v:horizAlign="1"/><v:tabList/>Election Close</text>		</g>
		<g id="shape36-99" v:mID="36" v:groupContext="shape" transform="translate(394.016,-124.724)">
			<title>Final node.36</title>
			<desc>END</desc>
			<v:userDefs>
				<v:ud v:nameU="visVersion" v:prompt="" v:val="VT0(15):26"/>
			</v:userDefs>
			<v:textBlock v:margins="rect(4,4,4,4)" v:tabSpace="42.5197"/>
			<v:textRect cx="17.0079" cy="853.092" width="31.71" height="22.4037"/>
			<path d="M30.61 824.88 A13.6063 13.6063 -180 1 0 3.4 824.88 A13.6063 13.6063 -180 1 0 30.61 824.88 Z" class="st11"/>
			<path d="M34.02 824.88 A17.0079 17.0079 -180 1 0 0 824.88 A17.0079 17.0079 -180 1 0 34.02 824.88" class="st12"/>
			<path d="M30.61 824.88 A13.6063 13.6063 -180 1 0 3.4 824.88 A13.6063 13.6063 -180 1 0 30.61 824.88" class="st12"/>
			<text x="6.51" y="856.69" class="st13" v:langID="1033"><v:paragraph v:horizAlign="1"/><v:tabList/>END</text>		</g>
		<g id="shape37-104" v:mID="37" v:groupContext="shape" v:layerMember="0" transform="translate(403.937,-202.7)">
			<title>Dynamic connector.37</title>
			<path d="M7.09 841.89 L7.09 879.81" class="st4"/>
		</g>
		<g id="shape40-109" v:mID="40" v:groupContext="shape" v:layerMember="0" transform="translate(428.032,-289.134)">
			<title>Dynamic connector.40</title>
			<desc>Election is open</desc>
			<v:textBlock v:margins="rect(4,4,4,4)" v:tabSpace="42.5197"/>
			<v:textRect cx="96.378" cy="585.152" width="62.86" height="17.6036"/>
			<path d="M0 841.89 L96.38 841.89 L96.38 422.36 L-87.91 422.36" class="st4"/>
			<rect v:rectContext="textBkgnd" x="70.7632" y="580.352" width="51.2295" height="9.59985" class="st15"/>
			<text x="70.76" y="587.55" class="st10" v:langID="1033"><v:paragraph v:horizAlign="1"/><v:tabList/>Election is open  </text>		</g>
	</g>
</svg>
